<?xml version="1.0" standalone="no"?>
<!DOCTYPE svg PUBLIC "-//W3C//DTD SVG 20010904//EN"
 "http://www.w3.org/TR/2001/REC-SVG-20010904/DTD/svg10.dtd">
<svg version="1.0" xmlns="http://www.w3.org/2000/svg"
 width="256.000000pt" height="256.000000pt" viewBox="0 0 256.000000 256.000000"
 preserveAspectRatio="xMidYMid meet">
<metadata>
Created by potrace 1.11, written by Peter Selinger 2001-2013
</metadata>
<g transform="translate(0.000000,256.000000) scale(0.100000,-0.100000)"
fill="#000000" stroke="none">
<path d="M641 1665 l-42 -46 39 -47 c214 -256 322 -387 322 -392 0 -3 -57 -25
-127 -49 -364 -125 -613 -216 -613 -222 0 -7 86 -28 140 -35 14 -1 39 -5 55
-8 66 -12 155 -19 257 -20 119 -2 86 -11 555 145 101 33 191 62 200 64 53 12
944 315 978 333 84 43 160 138 144 179 -14 39 -53 55 -141 60 l-83 4 -387
-129 -388 -129 -422 168 c-232 93 -428 169 -434 169 -6 0 -30 -20 -53 -45z"/>
<path d="M41 1200 c-35 -31 -36 -36 -18 -54 6 -8 32 -37 57 -66 25 -29 59 -68
76 -88 l31 -35 54 17 c95 30 199 70 199 76 0 5 -302 153 -351 172 -12 5 -27
-2 -48 -22z"/>
</g>
</svg>
